G04 #@! TF.FileFunction,Copper,L2,Bot,Signal*
%FSLAX46Y46*%
G04 Gerber Fmt 4.6, Leading zero omitted, Abs format (unit mm)*
G04 Created by KiCad (PCBNEW (2015-04-22 BZR 5620)-product) date 26/04/2015 16:53:39*
%MOMM*%
G01*
G04 APERTURE LIST*
%ADD10C,0.100000*%
%ADD11C,0.200000*%
%ADD12O,2.032000X1.727200*%
%ADD13O,1.727200X2.032000*%
%ADD14C,0.889000*%
%ADD15C,0.254000*%
G04 APERTURE END LIST*
D10*
D11*
X229473143Y-100331714D02*
X229235048Y-100998381D01*
X228996952Y-100331714D01*
X228425524Y-99998381D02*
X228330285Y-99998381D01*
X228235047Y-100046000D01*
X228187428Y-100093619D01*
X228139809Y-100188857D01*
X228092190Y-100379333D01*
X228092190Y-100617429D01*
X228139809Y-100807905D01*
X228187428Y-100903143D01*
X228235047Y-100950762D01*
X228330285Y-100998381D01*
X228425524Y-100998381D01*
X228520762Y-100950762D01*
X228568381Y-100903143D01*
X228616000Y-100807905D01*
X228663619Y-100617429D01*
X228663619Y-100379333D01*
X228616000Y-100188857D01*
X228568381Y-100093619D01*
X228520762Y-100046000D01*
X228425524Y-99998381D01*
X227663619Y-100903143D02*
X227616000Y-100950762D01*
X227663619Y-100998381D01*
X227711238Y-100950762D01*
X227663619Y-100903143D01*
X227663619Y-100998381D01*
X227235048Y-100093619D02*
X227187429Y-100046000D01*
X227092191Y-99998381D01*
X226854095Y-99998381D01*
X226758857Y-100046000D01*
X226711238Y-100093619D01*
X226663619Y-100188857D01*
X226663619Y-100284095D01*
X226711238Y-100426952D01*
X227282667Y-100998381D01*
X226663619Y-100998381D01*
X229425524Y-101693619D02*
X229377905Y-101646000D01*
X229282667Y-101598381D01*
X229044571Y-101598381D01*
X228949333Y-101646000D01*
X228901714Y-101693619D01*
X228854095Y-101788857D01*
X228854095Y-101884095D01*
X228901714Y-102026952D01*
X229473143Y-102598381D01*
X228854095Y-102598381D01*
X228235048Y-101598381D02*
X228139809Y-101598381D01*
X228044571Y-101646000D01*
X227996952Y-101693619D01*
X227949333Y-101788857D01*
X227901714Y-101979333D01*
X227901714Y-102217429D01*
X227949333Y-102407905D01*
X227996952Y-102503143D01*
X228044571Y-102550762D01*
X228139809Y-102598381D01*
X228235048Y-102598381D01*
X228330286Y-102550762D01*
X228377905Y-102503143D01*
X228425524Y-102407905D01*
X228473143Y-102217429D01*
X228473143Y-101979333D01*
X228425524Y-101788857D01*
X228377905Y-101693619D01*
X228330286Y-101646000D01*
X228235048Y-101598381D01*
X226949333Y-102598381D02*
X227520762Y-102598381D01*
X227235048Y-102598381D02*
X227235048Y-101598381D01*
X227330286Y-101741238D01*
X227425524Y-101836476D01*
X227520762Y-101884095D01*
X226044571Y-101598381D02*
X226520762Y-101598381D01*
X226568381Y-102074571D01*
X226520762Y-102026952D01*
X226425524Y-101979333D01*
X226187428Y-101979333D01*
X226092190Y-102026952D01*
X226044571Y-102074571D01*
X225996952Y-102169810D01*
X225996952Y-102407905D01*
X226044571Y-102503143D01*
X226092190Y-102550762D01*
X226187428Y-102598381D01*
X226425524Y-102598381D01*
X226520762Y-102550762D01*
X226568381Y-102503143D01*
X225568381Y-102217429D02*
X224806476Y-102217429D01*
X224139810Y-101598381D02*
X224044571Y-101598381D01*
X223949333Y-101646000D01*
X223901714Y-101693619D01*
X223854095Y-101788857D01*
X223806476Y-101979333D01*
X223806476Y-102217429D01*
X223854095Y-102407905D01*
X223901714Y-102503143D01*
X223949333Y-102550762D01*
X224044571Y-102598381D01*
X224139810Y-102598381D01*
X224235048Y-102550762D01*
X224282667Y-102503143D01*
X224330286Y-102407905D01*
X224377905Y-102217429D01*
X224377905Y-101979333D01*
X224330286Y-101788857D01*
X224282667Y-101693619D01*
X224235048Y-101646000D01*
X224139810Y-101598381D01*
X222949333Y-101931714D02*
X222949333Y-102598381D01*
X223187429Y-101550762D02*
X223425524Y-102265048D01*
X222806476Y-102265048D01*
X222425524Y-102217429D02*
X221663619Y-102217429D01*
X221235048Y-101693619D02*
X221187429Y-101646000D01*
X221092191Y-101598381D01*
X220854095Y-101598381D01*
X220758857Y-101646000D01*
X220711238Y-101693619D01*
X220663619Y-101788857D01*
X220663619Y-101884095D01*
X220711238Y-102026952D01*
X221282667Y-102598381D01*
X220663619Y-102598381D01*
X219806476Y-101598381D02*
X219996953Y-101598381D01*
X220092191Y-101646000D01*
X220139810Y-101693619D01*
X220235048Y-101836476D01*
X220282667Y-102026952D01*
X220282667Y-102407905D01*
X220235048Y-102503143D01*
X220187429Y-102550762D01*
X220092191Y-102598381D01*
X219901714Y-102598381D01*
X219806476Y-102550762D01*
X219758857Y-102503143D01*
X219711238Y-102407905D01*
X219711238Y-102169810D01*
X219758857Y-102074571D01*
X219806476Y-102026952D01*
X219901714Y-101979333D01*
X220092191Y-101979333D01*
X220187429Y-102026952D01*
X220235048Y-102074571D01*
X220282667Y-102169810D01*
D12*
X202565000Y-103632000D03*
X202565000Y-106172000D03*
X202565000Y-108712000D03*
X202565000Y-111252000D03*
X202565000Y-113792000D03*
X202565000Y-116332000D03*
X213995000Y-103632000D03*
X213995000Y-106172000D03*
X213995000Y-108712000D03*
X213995000Y-111252000D03*
X213995000Y-113792000D03*
X213995000Y-116332000D03*
D13*
X210693000Y-122174000D03*
X208153000Y-122174000D03*
X205613000Y-122174000D03*
D14*
X208153000Y-106807000D03*
D15*
X208153000Y-122174000D02*
X208153000Y-106807000D01*
G36*
X232360000Y-104106495D02*
X231898177Y-108816525D01*
X230540031Y-113314924D01*
X228334008Y-117463850D01*
X225364132Y-121105276D01*
X221743527Y-124100501D01*
X217610103Y-126335435D01*
X215653951Y-126940965D01*
X215653951Y-116342462D01*
X215627444Y-116051190D01*
X215544866Y-115770615D01*
X215409363Y-115511422D01*
X215226097Y-115283485D01*
X215002048Y-115095485D01*
X214942413Y-115062700D01*
X214984701Y-115040216D01*
X215211353Y-114855363D01*
X215397784Y-114630006D01*
X215536892Y-114372731D01*
X215623379Y-114093335D01*
X215653951Y-113802462D01*
X215627444Y-113511190D01*
X215544866Y-113230615D01*
X215409363Y-112971422D01*
X215226097Y-112743485D01*
X215002048Y-112555485D01*
X214942413Y-112522700D01*
X214984701Y-112500216D01*
X215211353Y-112315363D01*
X215397784Y-112090006D01*
X215536892Y-111832731D01*
X215623379Y-111553335D01*
X215653951Y-111262462D01*
X215627444Y-110971190D01*
X215544866Y-110690615D01*
X215409363Y-110431422D01*
X215226097Y-110203485D01*
X215002048Y-110015485D01*
X214942413Y-109982700D01*
X214984701Y-109960216D01*
X215211353Y-109775363D01*
X215397784Y-109550006D01*
X215536892Y-109292731D01*
X215623379Y-109013335D01*
X215653951Y-108722462D01*
X215627444Y-108431190D01*
X215544866Y-108150615D01*
X215409363Y-107891422D01*
X215226097Y-107663485D01*
X215002048Y-107475485D01*
X214942413Y-107442700D01*
X214984701Y-107420216D01*
X215211353Y-107235363D01*
X215397784Y-107010006D01*
X215536892Y-106752731D01*
X215623379Y-106473335D01*
X215653951Y-106182462D01*
X215627444Y-105891190D01*
X215544866Y-105610615D01*
X215409363Y-105351422D01*
X215226097Y-105123485D01*
X215002048Y-104935485D01*
X214942413Y-104902700D01*
X214984701Y-104880216D01*
X215211353Y-104695363D01*
X215397784Y-104470006D01*
X215536892Y-104212731D01*
X215623379Y-103933335D01*
X215653951Y-103642462D01*
X215627444Y-103351190D01*
X215544866Y-103070615D01*
X215409363Y-102811422D01*
X215226097Y-102583485D01*
X215002048Y-102395485D01*
X214745749Y-102254584D01*
X214466964Y-102166148D01*
X214176312Y-102133546D01*
X214155388Y-102133400D01*
X213834612Y-102133400D01*
X213543532Y-102161941D01*
X213263540Y-102246475D01*
X213005299Y-102383784D01*
X212778647Y-102568637D01*
X212592216Y-102793994D01*
X212453108Y-103051269D01*
X212366621Y-103330665D01*
X212336049Y-103621538D01*
X212362556Y-103912810D01*
X212445134Y-104193385D01*
X212580637Y-104452578D01*
X212763903Y-104680515D01*
X212987952Y-104868515D01*
X213047586Y-104901299D01*
X213005299Y-104923784D01*
X212778647Y-105108637D01*
X212592216Y-105333994D01*
X212453108Y-105591269D01*
X212366621Y-105870665D01*
X212336049Y-106161538D01*
X212362556Y-106452810D01*
X212445134Y-106733385D01*
X212580637Y-106992578D01*
X212763903Y-107220515D01*
X212987952Y-107408515D01*
X213047586Y-107441299D01*
X213005299Y-107463784D01*
X212778647Y-107648637D01*
X212592216Y-107873994D01*
X212453108Y-108131269D01*
X212366621Y-108410665D01*
X212336049Y-108701538D01*
X212362556Y-108992810D01*
X212445134Y-109273385D01*
X212580637Y-109532578D01*
X212763903Y-109760515D01*
X212987952Y-109948515D01*
X213047586Y-109981299D01*
X213005299Y-110003784D01*
X212778647Y-110188637D01*
X212592216Y-110413994D01*
X212453108Y-110671269D01*
X212366621Y-110950665D01*
X212336049Y-111241538D01*
X212362556Y-111532810D01*
X212445134Y-111813385D01*
X212580637Y-112072578D01*
X212763903Y-112300515D01*
X212987952Y-112488515D01*
X213047586Y-112521299D01*
X213005299Y-112543784D01*
X212778647Y-112728637D01*
X212592216Y-112953994D01*
X212453108Y-113211269D01*
X212366621Y-113490665D01*
X212336049Y-113781538D01*
X212362556Y-114072810D01*
X212445134Y-114353385D01*
X212580637Y-114612578D01*
X212763903Y-114840515D01*
X212987952Y-115028515D01*
X213047586Y-115061299D01*
X213005299Y-115083784D01*
X212778647Y-115268637D01*
X212592216Y-115493994D01*
X212453108Y-115751269D01*
X212366621Y-116030665D01*
X212336049Y-116321538D01*
X212362556Y-116612810D01*
X212445134Y-116893385D01*
X212580637Y-117152578D01*
X212763903Y-117380515D01*
X212987952Y-117568515D01*
X213244251Y-117709416D01*
X213523036Y-117797852D01*
X213813688Y-117830454D01*
X213834612Y-117830600D01*
X214155388Y-117830600D01*
X214446468Y-117802059D01*
X214726460Y-117717525D01*
X214984701Y-117580216D01*
X215211353Y-117395363D01*
X215397784Y-117170006D01*
X215536892Y-116912731D01*
X215623379Y-116633335D01*
X215653951Y-116342462D01*
X215653951Y-126940965D01*
X213121292Y-127724955D01*
X212178185Y-127824079D01*
X212178185Y-122535914D01*
X212178185Y-121812086D01*
X212108773Y-121526367D01*
X211984954Y-121259679D01*
X211811486Y-121022271D01*
X211595035Y-120823267D01*
X211343919Y-120670314D01*
X211067789Y-120569291D01*
X211052026Y-120566642D01*
X210820000Y-120687783D01*
X210820000Y-122047000D01*
X212033925Y-122047000D01*
X212178185Y-121812086D01*
X212178185Y-122535914D01*
X212033925Y-122301000D01*
X210820000Y-122301000D01*
X210820000Y-123660217D01*
X211052026Y-123781358D01*
X211067789Y-123778709D01*
X211343919Y-123677686D01*
X211595035Y-123524733D01*
X211811486Y-123325729D01*
X211984954Y-123088321D01*
X212108773Y-122821633D01*
X212178185Y-122535914D01*
X212178185Y-127824079D01*
X210566000Y-127993525D01*
X210566000Y-123660217D01*
X210566000Y-122301000D01*
X210546000Y-122301000D01*
X210546000Y-122047000D01*
X210566000Y-122047000D01*
X210566000Y-120687783D01*
X210333974Y-120566642D01*
X210318211Y-120569291D01*
X210042081Y-120670314D01*
X209790965Y-120823267D01*
X209574514Y-121022271D01*
X209424343Y-121227794D01*
X209401216Y-121184299D01*
X209216363Y-120957647D01*
X208991006Y-120771216D01*
X208915000Y-120730119D01*
X208915000Y-107572088D01*
X208974130Y-107515780D01*
X209096161Y-107342790D01*
X209182268Y-107149392D01*
X209229170Y-106942952D01*
X209232546Y-106701150D01*
X209191426Y-106493481D01*
X209110754Y-106297753D01*
X208993600Y-106121423D01*
X208844428Y-105971207D01*
X208668921Y-105852825D01*
X208473761Y-105770788D01*
X208266384Y-105728219D01*
X208054689Y-105726741D01*
X207846738Y-105766410D01*
X207650452Y-105845715D01*
X207473308Y-105961634D01*
X207322054Y-106109753D01*
X207202450Y-106284431D01*
X207119052Y-106479012D01*
X207075037Y-106686087D01*
X207072081Y-106897767D01*
X207110297Y-107105990D01*
X207188230Y-107302825D01*
X207302910Y-107480773D01*
X207391000Y-107571993D01*
X207391000Y-120729013D01*
X207332422Y-120759637D01*
X207104485Y-120942903D01*
X206916485Y-121166952D01*
X206883700Y-121226586D01*
X206861216Y-121184299D01*
X206676363Y-120957647D01*
X206451006Y-120771216D01*
X206193731Y-120632108D01*
X205914335Y-120545621D01*
X205623462Y-120515049D01*
X205332190Y-120541556D01*
X205051615Y-120624134D01*
X204792422Y-120759637D01*
X204564485Y-120942903D01*
X204376485Y-121166952D01*
X204235584Y-121423251D01*
X204223951Y-121459922D01*
X204223951Y-116342462D01*
X204197444Y-116051190D01*
X204114866Y-115770615D01*
X203979363Y-115511422D01*
X203796097Y-115283485D01*
X203572048Y-115095485D01*
X203512413Y-115062700D01*
X203554701Y-115040216D01*
X203781353Y-114855363D01*
X203967784Y-114630006D01*
X204106892Y-114372731D01*
X204193379Y-114093335D01*
X204223951Y-113802462D01*
X204223951Y-108722462D01*
X204197444Y-108431190D01*
X204114866Y-108150615D01*
X203979363Y-107891422D01*
X203796097Y-107663485D01*
X203572048Y-107475485D01*
X203512413Y-107442700D01*
X203554701Y-107420216D01*
X203781353Y-107235363D01*
X203967784Y-107010006D01*
X204106892Y-106752731D01*
X204193379Y-106473335D01*
X204223951Y-106182462D01*
X204197444Y-105891190D01*
X204114866Y-105610615D01*
X203979363Y-105351422D01*
X203796097Y-105123485D01*
X203572048Y-104935485D01*
X203512413Y-104902700D01*
X203554701Y-104880216D01*
X203781353Y-104695363D01*
X203967784Y-104470006D01*
X204106892Y-104212731D01*
X204193379Y-103933335D01*
X204223951Y-103642462D01*
X204197444Y-103351190D01*
X204114866Y-103070615D01*
X203979363Y-102811422D01*
X203796097Y-102583485D01*
X203572048Y-102395485D01*
X203315749Y-102254584D01*
X203036964Y-102166148D01*
X202746312Y-102133546D01*
X202725388Y-102133400D01*
X202404612Y-102133400D01*
X202113532Y-102161941D01*
X201833540Y-102246475D01*
X201575299Y-102383784D01*
X201348647Y-102568637D01*
X201162216Y-102793994D01*
X201023108Y-103051269D01*
X200936621Y-103330665D01*
X200906049Y-103621538D01*
X200932556Y-103912810D01*
X201015134Y-104193385D01*
X201150637Y-104452578D01*
X201333903Y-104680515D01*
X201557952Y-104868515D01*
X201617586Y-104901299D01*
X201575299Y-104923784D01*
X201348647Y-105108637D01*
X201162216Y-105333994D01*
X201023108Y-105591269D01*
X200936621Y-105870665D01*
X200906049Y-106161538D01*
X200932556Y-106452810D01*
X201015134Y-106733385D01*
X201150637Y-106992578D01*
X201333903Y-107220515D01*
X201557952Y-107408515D01*
X201617586Y-107441299D01*
X201575299Y-107463784D01*
X201348647Y-107648637D01*
X201162216Y-107873994D01*
X201023108Y-108131269D01*
X200936621Y-108410665D01*
X200906049Y-108701538D01*
X200932556Y-108992810D01*
X201015134Y-109273385D01*
X201150637Y-109532578D01*
X201333903Y-109760515D01*
X201557952Y-109948515D01*
X201619872Y-109982555D01*
X201413271Y-110133514D01*
X201214267Y-110349965D01*
X201061314Y-110601081D01*
X200960291Y-110877211D01*
X200957642Y-110892974D01*
X201078783Y-111125000D01*
X202438000Y-111125000D01*
X202438000Y-111105000D01*
X202692000Y-111105000D01*
X202692000Y-111125000D01*
X204051217Y-111125000D01*
X204172358Y-110892974D01*
X204169709Y-110877211D01*
X204068686Y-110601081D01*
X203915733Y-110349965D01*
X203716729Y-110133514D01*
X203511205Y-109983343D01*
X203554701Y-109960216D01*
X203781353Y-109775363D01*
X203967784Y-109550006D01*
X204106892Y-109292731D01*
X204193379Y-109013335D01*
X204223951Y-108722462D01*
X204223951Y-113802462D01*
X204197444Y-113511190D01*
X204114866Y-113230615D01*
X203979363Y-112971422D01*
X203796097Y-112743485D01*
X203572048Y-112555485D01*
X203510127Y-112521444D01*
X203716729Y-112370486D01*
X203915733Y-112154035D01*
X204068686Y-111902919D01*
X204169709Y-111626789D01*
X204172358Y-111611026D01*
X204051217Y-111379000D01*
X202692000Y-111379000D01*
X202692000Y-111399000D01*
X202438000Y-111399000D01*
X202438000Y-111379000D01*
X201078783Y-111379000D01*
X200957642Y-111611026D01*
X200960291Y-111626789D01*
X201061314Y-111902919D01*
X201214267Y-112154035D01*
X201413271Y-112370486D01*
X201618794Y-112520656D01*
X201575299Y-112543784D01*
X201348647Y-112728637D01*
X201162216Y-112953994D01*
X201023108Y-113211269D01*
X200936621Y-113490665D01*
X200906049Y-113781538D01*
X200932556Y-114072810D01*
X201015134Y-114353385D01*
X201150637Y-114612578D01*
X201333903Y-114840515D01*
X201557952Y-115028515D01*
X201617586Y-115061299D01*
X201575299Y-115083784D01*
X201348647Y-115268637D01*
X201162216Y-115493994D01*
X201023108Y-115751269D01*
X200936621Y-116030665D01*
X200906049Y-116321538D01*
X200932556Y-116612810D01*
X201015134Y-116893385D01*
X201150637Y-117152578D01*
X201333903Y-117380515D01*
X201557952Y-117568515D01*
X201814251Y-117709416D01*
X202093036Y-117797852D01*
X202383688Y-117830454D01*
X202404612Y-117830600D01*
X202725388Y-117830600D01*
X203016468Y-117802059D01*
X203296460Y-117717525D01*
X203554701Y-117580216D01*
X203781353Y-117395363D01*
X203967784Y-117170006D01*
X204106892Y-116912731D01*
X204193379Y-116633335D01*
X204223951Y-116342462D01*
X204223951Y-121459922D01*
X204147148Y-121702036D01*
X204114546Y-121992688D01*
X204114400Y-122013612D01*
X204114400Y-122334388D01*
X204142941Y-122625468D01*
X204227475Y-122905460D01*
X204364784Y-123163701D01*
X204549637Y-123390353D01*
X204774994Y-123576784D01*
X205032269Y-123715892D01*
X205311665Y-123802379D01*
X205602538Y-123832951D01*
X205893810Y-123806444D01*
X206174385Y-123723866D01*
X206433578Y-123588363D01*
X206661515Y-123405097D01*
X206849515Y-123181048D01*
X206882299Y-123121413D01*
X206904784Y-123163701D01*
X207089637Y-123390353D01*
X207314994Y-123576784D01*
X207572269Y-123715892D01*
X207851665Y-123802379D01*
X208142538Y-123832951D01*
X208433810Y-123806444D01*
X208714385Y-123723866D01*
X208973578Y-123588363D01*
X209201515Y-123405097D01*
X209389515Y-123181048D01*
X209423555Y-123119127D01*
X209574514Y-123325729D01*
X209790965Y-123524733D01*
X210042081Y-123677686D01*
X210318211Y-123778709D01*
X210333974Y-123781358D01*
X210566000Y-123660217D01*
X210566000Y-127993525D01*
X208448084Y-128216127D01*
X203768472Y-127790250D01*
X199260702Y-126463541D01*
X195096477Y-124286536D01*
X191434403Y-121342153D01*
X188413976Y-117742549D01*
X186150239Y-113624826D01*
X184729419Y-109145829D01*
X184202146Y-104445089D01*
X184200000Y-104137653D01*
X184200000Y-99958503D01*
X184218743Y-99767336D01*
X184264532Y-99615678D01*
X184338904Y-99475804D01*
X184439030Y-99353038D01*
X184561093Y-99252059D01*
X184700449Y-99176709D01*
X184851780Y-99129864D01*
X185040782Y-99110000D01*
X218785762Y-99110000D01*
X218785762Y-103581000D01*
X230351000Y-103581000D01*
X230351000Y-99110000D01*
X231511496Y-99110000D01*
X231702663Y-99128743D01*
X231854321Y-99174532D01*
X231994195Y-99248904D01*
X232116961Y-99349030D01*
X232217940Y-99471093D01*
X232293290Y-99610449D01*
X232340135Y-99761780D01*
X232360000Y-99950782D01*
X232360000Y-104106495D01*
X232360000Y-104106495D01*
G37*
X232360000Y-104106495D02*
X231898177Y-108816525D01*
X230540031Y-113314924D01*
X228334008Y-117463850D01*
X225364132Y-121105276D01*
X221743527Y-124100501D01*
X217610103Y-126335435D01*
X215653951Y-126940965D01*
X215653951Y-116342462D01*
X215627444Y-116051190D01*
X215544866Y-115770615D01*
X215409363Y-115511422D01*
X215226097Y-115283485D01*
X215002048Y-115095485D01*
X214942413Y-115062700D01*
X214984701Y-115040216D01*
X215211353Y-114855363D01*
X215397784Y-114630006D01*
X215536892Y-114372731D01*
X215623379Y-114093335D01*
X215653951Y-113802462D01*
X215627444Y-113511190D01*
X215544866Y-113230615D01*
X215409363Y-112971422D01*
X215226097Y-112743485D01*
X215002048Y-112555485D01*
X214942413Y-112522700D01*
X214984701Y-112500216D01*
X215211353Y-112315363D01*
X215397784Y-112090006D01*
X215536892Y-111832731D01*
X215623379Y-111553335D01*
X215653951Y-111262462D01*
X215627444Y-110971190D01*
X215544866Y-110690615D01*
X215409363Y-110431422D01*
X215226097Y-110203485D01*
X215002048Y-110015485D01*
X214942413Y-109982700D01*
X214984701Y-109960216D01*
X215211353Y-109775363D01*
X215397784Y-109550006D01*
X215536892Y-109292731D01*
X215623379Y-109013335D01*
X215653951Y-108722462D01*
X215627444Y-108431190D01*
X215544866Y-108150615D01*
X215409363Y-107891422D01*
X215226097Y-107663485D01*
X215002048Y-107475485D01*
X214942413Y-107442700D01*
X214984701Y-107420216D01*
X215211353Y-107235363D01*
X215397784Y-107010006D01*
X215536892Y-106752731D01*
X215623379Y-106473335D01*
X215653951Y-106182462D01*
X215627444Y-105891190D01*
X215544866Y-105610615D01*
X215409363Y-105351422D01*
X215226097Y-105123485D01*
X215002048Y-104935485D01*
X214942413Y-104902700D01*
X214984701Y-104880216D01*
X215211353Y-104695363D01*
X215397784Y-104470006D01*
X215536892Y-104212731D01*
X215623379Y-103933335D01*
X215653951Y-103642462D01*
X215627444Y-103351190D01*
X215544866Y-103070615D01*
X215409363Y-102811422D01*
X215226097Y-102583485D01*
X215002048Y-102395485D01*
X214745749Y-102254584D01*
X214466964Y-102166148D01*
X214176312Y-102133546D01*
X214155388Y-102133400D01*
X213834612Y-102133400D01*
X213543532Y-102161941D01*
X213263540Y-102246475D01*
X213005299Y-102383784D01*
X212778647Y-102568637D01*
X212592216Y-102793994D01*
X212453108Y-103051269D01*
X212366621Y-103330665D01*
X212336049Y-103621538D01*
X212362556Y-103912810D01*
X212445134Y-104193385D01*
X212580637Y-104452578D01*
X212763903Y-104680515D01*
X212987952Y-104868515D01*
X213047586Y-104901299D01*
X213005299Y-104923784D01*
X212778647Y-105108637D01*
X212592216Y-105333994D01*
X212453108Y-105591269D01*
X212366621Y-105870665D01*
X212336049Y-106161538D01*
X212362556Y-106452810D01*
X212445134Y-106733385D01*
X212580637Y-106992578D01*
X212763903Y-107220515D01*
X212987952Y-107408515D01*
X213047586Y-107441299D01*
X213005299Y-107463784D01*
X212778647Y-107648637D01*
X212592216Y-107873994D01*
X212453108Y-108131269D01*
X212366621Y-108410665D01*
X212336049Y-108701538D01*
X212362556Y-108992810D01*
X212445134Y-109273385D01*
X212580637Y-109532578D01*
X212763903Y-109760515D01*
X212987952Y-109948515D01*
X213047586Y-109981299D01*
X213005299Y-110003784D01*
X212778647Y-110188637D01*
X212592216Y-110413994D01*
X212453108Y-110671269D01*
X212366621Y-110950665D01*
X212336049Y-111241538D01*
X212362556Y-111532810D01*
X212445134Y-111813385D01*
X212580637Y-112072578D01*
X212763903Y-112300515D01*
X212987952Y-112488515D01*
X213047586Y-112521299D01*
X213005299Y-112543784D01*
X212778647Y-112728637D01*
X212592216Y-112953994D01*
X212453108Y-113211269D01*
X212366621Y-113490665D01*
X212336049Y-113781538D01*
X212362556Y-114072810D01*
X212445134Y-114353385D01*
X212580637Y-114612578D01*
X212763903Y-114840515D01*
X212987952Y-115028515D01*
X213047586Y-115061299D01*
X213005299Y-115083784D01*
X212778647Y-115268637D01*
X212592216Y-115493994D01*
X212453108Y-115751269D01*
X212366621Y-116030665D01*
X212336049Y-116321538D01*
X212362556Y-116612810D01*
X212445134Y-116893385D01*
X212580637Y-117152578D01*
X212763903Y-117380515D01*
X212987952Y-117568515D01*
X213244251Y-117709416D01*
X213523036Y-117797852D01*
X213813688Y-117830454D01*
X213834612Y-117830600D01*
X214155388Y-117830600D01*
X214446468Y-117802059D01*
X214726460Y-117717525D01*
X214984701Y-117580216D01*
X215211353Y-117395363D01*
X215397784Y-117170006D01*
X215536892Y-116912731D01*
X215623379Y-116633335D01*
X215653951Y-116342462D01*
X215653951Y-126940965D01*
X213121292Y-127724955D01*
X212178185Y-127824079D01*
X212178185Y-122535914D01*
X212178185Y-121812086D01*
X212108773Y-121526367D01*
X211984954Y-121259679D01*
X211811486Y-121022271D01*
X211595035Y-120823267D01*
X211343919Y-120670314D01*
X211067789Y-120569291D01*
X211052026Y-120566642D01*
X210820000Y-120687783D01*
X210820000Y-122047000D01*
X212033925Y-122047000D01*
X212178185Y-121812086D01*
X212178185Y-122535914D01*
X212033925Y-122301000D01*
X210820000Y-122301000D01*
X210820000Y-123660217D01*
X211052026Y-123781358D01*
X211067789Y-123778709D01*
X211343919Y-123677686D01*
X211595035Y-123524733D01*
X211811486Y-123325729D01*
X211984954Y-123088321D01*
X212108773Y-122821633D01*
X212178185Y-122535914D01*
X212178185Y-127824079D01*
X210566000Y-127993525D01*
X210566000Y-123660217D01*
X210566000Y-122301000D01*
X210546000Y-122301000D01*
X210546000Y-122047000D01*
X210566000Y-122047000D01*
X210566000Y-120687783D01*
X210333974Y-120566642D01*
X210318211Y-120569291D01*
X210042081Y-120670314D01*
X209790965Y-120823267D01*
X209574514Y-121022271D01*
X209424343Y-121227794D01*
X209401216Y-121184299D01*
X209216363Y-120957647D01*
X208991006Y-120771216D01*
X208915000Y-120730119D01*
X208915000Y-107572088D01*
X208974130Y-107515780D01*
X209096161Y-107342790D01*
X209182268Y-107149392D01*
X209229170Y-106942952D01*
X209232546Y-106701150D01*
X209191426Y-106493481D01*
X209110754Y-106297753D01*
X208993600Y-106121423D01*
X208844428Y-105971207D01*
X208668921Y-105852825D01*
X208473761Y-105770788D01*
X208266384Y-105728219D01*
X208054689Y-105726741D01*
X207846738Y-105766410D01*
X207650452Y-105845715D01*
X207473308Y-105961634D01*
X207322054Y-106109753D01*
X207202450Y-106284431D01*
X207119052Y-106479012D01*
X207075037Y-106686087D01*
X207072081Y-106897767D01*
X207110297Y-107105990D01*
X207188230Y-107302825D01*
X207302910Y-107480773D01*
X207391000Y-107571993D01*
X207391000Y-120729013D01*
X207332422Y-120759637D01*
X207104485Y-120942903D01*
X206916485Y-121166952D01*
X206883700Y-121226586D01*
X206861216Y-121184299D01*
X206676363Y-120957647D01*
X206451006Y-120771216D01*
X206193731Y-120632108D01*
X205914335Y-120545621D01*
X205623462Y-120515049D01*
X205332190Y-120541556D01*
X205051615Y-120624134D01*
X204792422Y-120759637D01*
X204564485Y-120942903D01*
X204376485Y-121166952D01*
X204235584Y-121423251D01*
X204223951Y-121459922D01*
X204223951Y-116342462D01*
X204197444Y-116051190D01*
X204114866Y-115770615D01*
X203979363Y-115511422D01*
X203796097Y-115283485D01*
X203572048Y-115095485D01*
X203512413Y-115062700D01*
X203554701Y-115040216D01*
X203781353Y-114855363D01*
X203967784Y-114630006D01*
X204106892Y-114372731D01*
X204193379Y-114093335D01*
X204223951Y-113802462D01*
X204223951Y-108722462D01*
X204197444Y-108431190D01*
X204114866Y-108150615D01*
X203979363Y-107891422D01*
X203796097Y-107663485D01*
X203572048Y-107475485D01*
X203512413Y-107442700D01*
X203554701Y-107420216D01*
X203781353Y-107235363D01*
X203967784Y-107010006D01*
X204106892Y-106752731D01*
X204193379Y-106473335D01*
X204223951Y-106182462D01*
X204197444Y-105891190D01*
X204114866Y-105610615D01*
X203979363Y-105351422D01*
X203796097Y-105123485D01*
X203572048Y-104935485D01*
X203512413Y-104902700D01*
X203554701Y-104880216D01*
X203781353Y-104695363D01*
X203967784Y-104470006D01*
X204106892Y-104212731D01*
X204193379Y-103933335D01*
X204223951Y-103642462D01*
X204197444Y-103351190D01*
X204114866Y-103070615D01*
X203979363Y-102811422D01*
X203796097Y-102583485D01*
X203572048Y-102395485D01*
X203315749Y-102254584D01*
X203036964Y-102166148D01*
X202746312Y-102133546D01*
X202725388Y-102133400D01*
X202404612Y-102133400D01*
X202113532Y-102161941D01*
X201833540Y-102246475D01*
X201575299Y-102383784D01*
X201348647Y-102568637D01*
X201162216Y-102793994D01*
X201023108Y-103051269D01*
X200936621Y-103330665D01*
X200906049Y-103621538D01*
X200932556Y-103912810D01*
X201015134Y-104193385D01*
X201150637Y-104452578D01*
X201333903Y-104680515D01*
X201557952Y-104868515D01*
X201617586Y-104901299D01*
X201575299Y-104923784D01*
X201348647Y-105108637D01*
X201162216Y-105333994D01*
X201023108Y-105591269D01*
X200936621Y-105870665D01*
X200906049Y-106161538D01*
X200932556Y-106452810D01*
X201015134Y-106733385D01*
X201150637Y-106992578D01*
X201333903Y-107220515D01*
X201557952Y-107408515D01*
X201617586Y-107441299D01*
X201575299Y-107463784D01*
X201348647Y-107648637D01*
X201162216Y-107873994D01*
X201023108Y-108131269D01*
X200936621Y-108410665D01*
X200906049Y-108701538D01*
X200932556Y-108992810D01*
X201015134Y-109273385D01*
X201150637Y-109532578D01*
X201333903Y-109760515D01*
X201557952Y-109948515D01*
X201619872Y-109982555D01*
X201413271Y-110133514D01*
X201214267Y-110349965D01*
X201061314Y-110601081D01*
X200960291Y-110877211D01*
X200957642Y-110892974D01*
X201078783Y-111125000D01*
X202438000Y-111125000D01*
X202438000Y-111105000D01*
X202692000Y-111105000D01*
X202692000Y-111125000D01*
X204051217Y-111125000D01*
X204172358Y-110892974D01*
X204169709Y-110877211D01*
X204068686Y-110601081D01*
X203915733Y-110349965D01*
X203716729Y-110133514D01*
X203511205Y-109983343D01*
X203554701Y-109960216D01*
X203781353Y-109775363D01*
X203967784Y-109550006D01*
X204106892Y-109292731D01*
X204193379Y-109013335D01*
X204223951Y-108722462D01*
X204223951Y-113802462D01*
X204197444Y-113511190D01*
X204114866Y-113230615D01*
X203979363Y-112971422D01*
X203796097Y-112743485D01*
X203572048Y-112555485D01*
X203510127Y-112521444D01*
X203716729Y-112370486D01*
X203915733Y-112154035D01*
X204068686Y-111902919D01*
X204169709Y-111626789D01*
X204172358Y-111611026D01*
X204051217Y-111379000D01*
X202692000Y-111379000D01*
X202692000Y-111399000D01*
X202438000Y-111399000D01*
X202438000Y-111379000D01*
X201078783Y-111379000D01*
X200957642Y-111611026D01*
X200960291Y-111626789D01*
X201061314Y-111902919D01*
X201214267Y-112154035D01*
X201413271Y-112370486D01*
X201618794Y-112520656D01*
X201575299Y-112543784D01*
X201348647Y-112728637D01*
X201162216Y-112953994D01*
X201023108Y-113211269D01*
X200936621Y-113490665D01*
X200906049Y-113781538D01*
X200932556Y-114072810D01*
X201015134Y-114353385D01*
X201150637Y-114612578D01*
X201333903Y-114840515D01*
X201557952Y-115028515D01*
X201617586Y-115061299D01*
X201575299Y-115083784D01*
X201348647Y-115268637D01*
X201162216Y-115493994D01*
X201023108Y-115751269D01*
X200936621Y-116030665D01*
X200906049Y-116321538D01*
X200932556Y-116612810D01*
X201015134Y-116893385D01*
X201150637Y-117152578D01*
X201333903Y-117380515D01*
X201557952Y-117568515D01*
X201814251Y-117709416D01*
X202093036Y-117797852D01*
X202383688Y-117830454D01*
X202404612Y-117830600D01*
X202725388Y-117830600D01*
X203016468Y-117802059D01*
X203296460Y-117717525D01*
X203554701Y-117580216D01*
X203781353Y-117395363D01*
X203967784Y-117170006D01*
X204106892Y-116912731D01*
X204193379Y-116633335D01*
X204223951Y-116342462D01*
X204223951Y-121459922D01*
X204147148Y-121702036D01*
X204114546Y-121992688D01*
X204114400Y-122013612D01*
X204114400Y-122334388D01*
X204142941Y-122625468D01*
X204227475Y-122905460D01*
X204364784Y-123163701D01*
X204549637Y-123390353D01*
X204774994Y-123576784D01*
X205032269Y-123715892D01*
X205311665Y-123802379D01*
X205602538Y-123832951D01*
X205893810Y-123806444D01*
X206174385Y-123723866D01*
X206433578Y-123588363D01*
X206661515Y-123405097D01*
X206849515Y-123181048D01*
X206882299Y-123121413D01*
X206904784Y-123163701D01*
X207089637Y-123390353D01*
X207314994Y-123576784D01*
X207572269Y-123715892D01*
X207851665Y-123802379D01*
X208142538Y-123832951D01*
X208433810Y-123806444D01*
X208714385Y-123723866D01*
X208973578Y-123588363D01*
X209201515Y-123405097D01*
X209389515Y-123181048D01*
X209423555Y-123119127D01*
X209574514Y-123325729D01*
X209790965Y-123524733D01*
X210042081Y-123677686D01*
X210318211Y-123778709D01*
X210333974Y-123781358D01*
X210566000Y-123660217D01*
X210566000Y-127993525D01*
X208448084Y-128216127D01*
X203768472Y-127790250D01*
X199260702Y-126463541D01*
X195096477Y-124286536D01*
X191434403Y-121342153D01*
X188413976Y-117742549D01*
X186150239Y-113624826D01*
X184729419Y-109145829D01*
X184202146Y-104445089D01*
X184200000Y-104137653D01*
X184200000Y-99958503D01*
X184218743Y-99767336D01*
X184264532Y-99615678D01*
X184338904Y-99475804D01*
X184439030Y-99353038D01*
X184561093Y-99252059D01*
X184700449Y-99176709D01*
X184851780Y-99129864D01*
X185040782Y-99110000D01*
X218785762Y-99110000D01*
X218785762Y-103581000D01*
X230351000Y-103581000D01*
X230351000Y-99110000D01*
X231511496Y-99110000D01*
X231702663Y-99128743D01*
X231854321Y-99174532D01*
X231994195Y-99248904D01*
X232116961Y-99349030D01*
X232217940Y-99471093D01*
X232293290Y-99610449D01*
X232340135Y-99761780D01*
X232360000Y-99950782D01*
X232360000Y-104106495D01*
M02*
